<?xml version="1.0" standalone="no"?>
<!DOCTYPE svg PUBLIC "-//W3C//DTD SVG 20010904//EN"
 "http://www.w3.org/TR/2001/REC-SVG-20010904/DTD/svg10.dtd">
<svg version="1.0" xmlns="http://www.w3.org/2000/svg"
 width="200.000000pt" height="200.000000pt" viewBox="0 0 200.000000 200.000000"
 preserveAspectRatio="xMidYMid meet">
<metadata>
Created by potrace 1.14, written by Peter Selinger 2001-2017
</metadata>
<g transform="translate(0.000000,200.000000) scale(0.100000,-0.100000)"
fill="#000000" stroke="none">
<path d="M885 1803 c-124 -17 -295 -92 -396 -173 -133 -107 -237 -268 -280
-435 -28 -110 -28 -280 0 -390 72 -278 286 -498 571 -587 108 -33 319 -33 435
0 360 104 598 420 596 792 -2 446 -373 807 -821 798 -41 0 -88 -3 -105 -5z
m305 -48 c92 -24 234 -95 307 -154 128 -105 224 -260 264 -426 28 -117 23
-292 -11 -400 -75 -240 -259 -428 -500 -510 -200 -68 -399 -55 -595 40 -441
213 -573 775 -275 1168 183 241 515 357 810 282z"/>
<path d="M1115 1701 c-4 -13 -12 -17 -29 -14 -31 6 -55 -20 -62 -69 -7 -43
-24 -34 -24 14 0 15 -7 34 -16 42 -21 21 -77 20 -104 -2 -20 -16 -20 -19 -6
-31 14 -12 14 -14 0 -28 -9 -9 -13 -24 -11 -34 3 -11 2 -19 -3 -19 -4 0 -10 9
-13 20 -3 11 -16 24 -29 29 -12 6 -17 10 -10 10 6 1 12 10 12 21 0 29 -51 27
-86 -3 -22 -19 -26 -29 -20 -50 5 -22 13 -27 39 -28 31 -2 31 -2 4 -6 -22 -4
-28 -9 -25 -26 2 -17 9 -22 30 -20 28 2 28 1 13 -27 -8 -16 -15 -35 -15 -43 0
-7 -34 -42 -76 -78 -128 -107 -144 -124 -144 -155 0 -16 -7 -51 -15 -78 -22
-71 -19 -194 5 -265 61 -182 173 -286 367 -342 119 -34 196 -22 350 53 123 60
192 146 228 285 19 73 19 235 0 288 -8 22 -15 52 -15 66 0 30 -67 100 -166
174 -60 45 -94 92 -75 104 16 10 63 122 57 137 -3 7 2 15 10 18 22 8 17 25
-11 38 -33 15 -55 -2 -35 -27 10 -12 10 -15 -4 -15 -11 0 -25 -18 -38 -50 -25
-60 -43 -66 -34 -12 3 20 9 61 12 90 l7 52 -31 0 c-21 0 -32 -6 -37 -19z m-18
-103 c-3 -7 -5 -2 -5 12 0 14 2 19 5 13 2 -7 2 -19 0 -25z m-134 -55 c-7 -2
-21 -2 -30 0 -10 3 -4 5 12 5 17 0 24 -2 18 -5z m149 -23 c68 -19 48 -26 -60
-22 -97 4 -184 -5 -237 -24 -19 -6 -19 -6 -3 11 34 36 218 57 300 35z m56 -56
c17 -7 32 -18 32 -25 0 -6 -7 -8 -17 -4 -73 28 -213 32 -318 10 -83 -18 -75
-17 -75 -6 0 5 16 15 35 21 88 29 275 31 343 4z m9 -43 c17 -7 34 -18 36 -25
4 -10 -6 -10 -46 1 -54 15 -318 13 -364 -2 -14 -4 -23 -3 -23 3 0 6 28 18 63
26 73 18 283 16 334 -3z m-5 -41 c62 -18 56 -31 -9 -23 -32 5 -131 8 -220 8
-89 0 -159 3 -155 7 26 26 300 31 384 8z m129 -36 c12 -16 12 -17 -4 -11 -10
4 -25 7 -33 7 -8 0 -14 9 -14 20 0 17 3 19 18 11 10 -5 25 -18 33 -27z m-551
17 c0 -5 -9 -11 -21 -14 -16 -4 -18 -3 -8 9 13 16 29 19 29 5z m415 -36 c111
-16 176 -32 172 -43 -1 -4 17 -27 41 -51 46 -47 58 -41 16 9 l-26 31 26 -12
c29 -14 42 -46 31 -79 -6 -20 -9 -19 -41 19 -75 87 -185 122 -391 122 -162 0
-248 -14 -306 -51 -46 -29 -83 -89 -73 -117 6 -14 4 -14 -15 -1 -78 52 -8 126
163 172 70 19 276 20 403 1z m47 -43 c38 -11 86 -31 108 -46 42 -28 83 -83 73
-99 -3 -5 -13 4 -23 20 -53 88 -143 123 -341 130 -151 6 -257 -7 -307 -38 -38
-22 -72 -74 -72 -109 0 -20 -2 -22 -10 -10 -5 8 -10 25 -10 37 0 27 54 91 89
106 96 39 368 44 493 9z m-131 -12 c151 -15 239 -53 274 -120 14 -28 14 -28
-22 -43 -37 -14 -37 -14 -59 19 -12 18 -24 45 -26 61 -2 21 -13 33 -43 48 -36
18 -60 20 -226 20 -209 0 -219 -3 -219 -64 -1 -23 -9 -47 -24 -65 -20 -24 -26
-27 -45 -17 -27 15 -27 54 -1 91 27 38 89 60 190 70 47 4 90 8 95 8 6 1 53 -3
106 -8z m79 -53 l55 -12 3 -119 c2 -110 1 -118 -15 -113 -10 3 -45 14 -78 24
-33 9 -63 21 -67 27 -4 6 -11 6 -20 -1 -7 -6 -25 -13 -41 -17 -39 -9 -45 15
-17 75 31 66 21 98 -37 118 -34 12 -48 13 -82 2 -25 -7 -41 -18 -41 -28 0 -11
6 -14 23 -9 61 18 83 18 107 -2 l24 -19 -24 -61 c-24 -60 -25 -62 -73 -72 -27
-5 -57 -14 -67 -20 -15 -8 -18 -4 -24 39 -3 27 -3 80 0 119 6 67 8 71 33 75
57 9 289 4 341 -6z m-534 -117 l39 -19 -62 -1 c-63 0 -87 15 -35 23 26 4 26 4
5 12 -13 4 -20 11 -17 17 3 5 11 5 19 -2 7 -6 30 -19 51 -30z m824 31 c0 -5
-7 -12 -16 -15 -24 -9 -28 -7 -14 9 14 17 30 20 30 6z m-9 -31 c10 0 19 -4 19
-10 0 -5 -23 -10 -52 -10 -48 0 -50 1 -32 15 10 8 25 12 32 10 8 -3 22 -5 33
-5z m-684 -52 c-2 -13 -4 -5 -4 17 -1 22 1 32 4 23 2 -10 2 -28 0 -40z m500 5
c-3 -10 -5 -2 -5 17 0 19 2 27 5 18 2 -10 2 -26 0 -35z m-553 21 c9 -3 16 -14
16 -24 0 -9 9 -29 20 -43 26 -33 25 -40 -7 -57 -32 -17 -193 -16 -193 0 0 6
40 10 93 10 50 0 99 5 107 10 10 7 -19 10 -92 10 -70 0 -108 4 -108 11 0 7 28
8 89 4 61 -5 90 -4 95 4 5 8 -20 11 -88 11 -57 0 -96 4 -96 10 0 6 35 10 85
10 50 0 85 4 85 10 0 6 -35 10 -85 10 -56 0 -85 4 -85 11 0 8 20 9 65 4 44 -4
65 -3 65 4 0 12 11 14 34 5z m640 -5 c-4 -8 12 -10 55 -7 33 1 61 0 61 -4 0
-5 -36 -8 -80 -8 -47 0 -80 -4 -80 -10 0 -6 34 -10 82 -10 45 0 78 -3 75 -6
-3 -4 -44 -10 -89 -14 l-83 -7 88 -2 c121 -2 113 -20 -10 -23 l-98 -2 98 -3
c111 -4 133 -23 27 -23 -40 0 -70 -4 -70 -10 0 -6 30 -10 70 -10 90 0 93 -20
3 -21 l-68 -2 58 -7 c81 -10 83 -20 4 -20 -49 0 -67 4 -67 13 0 7 -18 23 -40
36 -44 25 -52 54 -20 71 11 6 22 21 26 34 3 13 15 28 27 34 29 14 40 14 31 1z
m-449 -133 c-7 -16 -18 -32 -25 -34 -7 -3 -5 7 5 22 10 15 15 29 12 33 -4 3
-16 -11 -28 -31 -22 -38 -48 -52 -29 -15 7 11 9 23 7 26 -3 3 -12 -8 -21 -24
-8 -15 -15 -23 -16 -18 0 6 7 21 16 33 9 13 14 26 11 29 -3 3 -15 -10 -26 -28
-12 -19 -21 -29 -21 -23 0 15 41 66 48 60 3 -3 12 0 21 7 14 11 14 10 2 -6
-22 -28 -7 -30 19 -2 29 31 43 15 25 -29z m55 41 c0 -4 5 -5 12 -1 7 4 8 3 4
-5 -4 -6 -12 -9 -17 -5 -5 3 -17 -12 -26 -33 -9 -21 -18 -33 -20 -26 -2 7 0
21 6 32 6 11 8 26 5 35 -4 11 0 14 15 13 12 -1 21 -5 21 -10z m144 -39 c10
-16 13 -28 7 -28 -6 0 -11 6 -11 13 0 8 -12 24 -27 38 -19 16 -23 18 -12 4 9
-11 20 -26 24 -34 10 -18 -10 -7 -43 23 -21 19 -22 21 -5 27 23 8 46 -7 67
-43z m-112 0 c-24 -24 -30 -10 -10 22 8 13 16 16 22 10 7 -7 3 -18 -12 -32z
m160 18 c3 3 9 0 14 -7 4 -8 3 -10 -4 -5 -15 9 -15 1 -2 -25 6 -10 7 -19 3
-19 -5 0 -14 14 -20 30 -6 17 -15 30 -20 29 -17 -3 -24 1 -18 12 5 7 13 5 24
-5 10 -9 20 -13 23 -10z m-201 -33 c-12 -20 -14 -14 -5 12 4 9 9 14 11 11 3
-2 0 -13 -6 -23z m254 -3 c9 -16 13 -30 11 -30 -3 0 -12 14 -21 30 -9 17 -13
30 -11 30 3 0 12 -13 21 -30z m-425 0 c-6 -11 -12 -20 -14 -20 -2 0 -2 9 1 20
3 11 9 20 15 20 5 0 4 -9 -2 -20z m-70 -2 c0 -4 -36 -8 -80 -8 -49 0 -80 4
-80 10 0 7 29 10 80 9 44 -2 80 -6 80 -11z m331 -20 c-29 -10 -46 -1 -30 18 9
10 16 11 32 2 l21 -11 -23 -9z m213 16 c3 -8 2 -12 -4 -9 -6 3 -10 10 -10 16
0 14 7 11 14 -7z m-544 -24 c10 -7 -12 -9 -70 -8 -80 1 -82 2 -30 8 30 4 62 7
70 8 8 1 22 -3 30 -8z m373 -162 l-10 -93 0 125 c-1 100 1 119 9 93 7 -22 8
-62 1 -125z m32 49 c-3 -56 -11 -118 -16 -137 l-9 -35 5 40 c3 22 5 84 5 138
0 65 4 97 11 97 8 0 9 -29 4 -103z m35 66 c0 -32 -5 -28 -14 10 -4 19 -3 26 4
22 5 -3 10 -18 10 -32z m165 27 c-4 -6 22 -10 70 -10 48 0 74 -4 70 -10 -3 -5
-41 -10 -83 -10 -59 -1 -73 -3 -59 -11 12 -7 41 -8 79 -4 43 5 59 4 54 -4 -4
-6 -25 -11 -47 -11 -24 0 -38 -4 -34 -10 3 -5 18 -10 33 -10 21 0 24 -2 12
-10 -12 -8 -12 -10 -1 -10 8 0 12 -2 9 -5 -3 -3 -39 11 -80 30 -62 29 -75 40
-71 55 4 17 17 25 46 29 5 0 5 -3 2 -9z m-535 -18 c0 -16 -9 -18 -92 -14 -130
5 -141 16 -23 22 55 4 103 7 108 8 4 1 7 -6 7 -16z m117 -89 c-2 -21 -4 -4 -4
37 0 41 2 58 4 38 2 -21 2 -55 0 -75z m40 19 c1 -48 9 -109 17 -137 19 -62 14
-69 -9 -13 -19 46 -34 238 -19 238 5 0 10 -39 11 -88z m36 -24 c4 -62 9 -124
12 -138 2 -14 -2 -5 -11 20 -18 54 -32 230 -17 230 6 0 13 -48 16 -112z m37
45 c0 -38 2 -106 5 -153 l4 -85 -14 65 c-16 76 -20 240 -5 240 6 0 10 -29 10
-67z m44 21 c8 -61 -5 -261 -15 -219 -10 45 -10 265 0 265 4 0 11 -21 15 -46z
m107 -119 l-11 -40 5 40 c3 22 6 69 7 105 l2 65 3 -65 c2 -36 -1 -83 -6 -105z
m36 73 c-2 -18 -4 -4 -4 32 0 36 2 50 4 33 2 -18 2 -48 0 -65z m42 75 c0 -10
-4 -27 -9 -38 -7 -16 -9 -13 -9 18 -1 20 4 37 9 37 6 0 10 -8 9 -17z m-422
-40 c-3 -10 -5 -2 -5 17 0 19 2 27 5 18 2 -10 2 -26 0 -35z m50 -30 c-2 -16
-4 -3 -4 27 0 30 2 43 4 28 2 -16 2 -40 0 -55z m-171 13 c-30 -14 -59 -20 -75
-17 l-26 5 25 4 c51 6 55 16 10 22 -37 6 -31 7 35 8 l80 0 -49 -22z m441 -78
c-2 -18 -4 -4 -4 32 0 36 2 50 4 33 2 -18 2 -48 0 -65z m-352 72 c3 -6 -4 -10
-17 -10 -18 0 -20 2 -8 10 19 12 18 12 25 0z m495 0 c12 -8 11 -10 -7 -10 -13
0 -23 5 -23 10 0 13 11 13 30 0z m-433 -32 c-3 -7 -5 -2 -5 12 0 14 2 19 5 13
2 -7 2 -19 0 -25z m-137 -50 l-1 -63 -34 37 c-19 21 -35 41 -35 46 0 6 50 37
68 41 1 1 2 -27 2 -61z m80 52 c0 -5 -11 -10 -25 -10 -14 0 -25 5 -25 10 0 6
11 10 25 10 14 0 25 -4 25 -10z m500 0 c0 -5 -12 -10 -26 -10 -14 0 -23 4 -19
10 3 6 15 10 26 10 10 0 19 -4 19 -10z m75 -7 c19 -9 35 -20 35 -25 0 -5 -16
-25 -35 -46 -34 -36 -34 -36 -35 -12 0 14 -3 42 -6 63 -8 42 -7 43 41 20z
m-488 -35 c-3 -8 -6 -5 -6 6 -1 11 2 17 5 13 3 -3 4 -12 1 -19z m310 0 c-3 -8
-6 -5 -6 6 -1 11 2 17 5 13 3 -3 4 -12 1 -19z m103 12 c0 -5 -11 -10 -25 -10
-14 0 -25 5 -25 10 0 6 11 10 25 10 14 0 25 -4 25 -10z m-495 -10 c7 -12 -12
-12 -40 0 -18 8 -17 9 7 9 15 1 30 -3 33 -9z m112 -32 c-3 -7 -5 -2 -5 12 0
14 2 19 5 13 2 -7 2 -19 0 -25z m388 12 c4 -6 -7 -10 -25 -10 -18 0 -29 4 -25
10 3 6 15 10 25 10 10 0 22 -4 25 -10z m-500 -10 c4 -6 -7 -10 -24 -10 -17 0
-31 5 -31 10 0 6 11 10 24 10 14 0 28 -4 31 -10z m332 -47 c-3 -10 -5 -4 -5
12 0 17 2 24 5 18 2 -7 2 -21 0 -30z m93 2 c0 -43 -18 -72 -51 -84 -18 -6 -34
-9 -36 -7 -2 2 12 27 32 56 19 28 35 56 35 62 0 5 5 6 10 3 6 -3 10 -17 10
-30z m-425 14 c4 -6 5 -12 4 -14 -7 -7 -59 8 -59 16 0 13 47 11 55 -2z m505 1
c0 -5 -11 -10 -25 -10 -14 0 -25 5 -25 10 0 6 11 10 25 10 14 0 25 -4 25 -10z
m-425 -56 c19 -26 33 -49 31 -51 -5 -5 -75 22 -76 30 -2 38 1 79 5 75 3 -3 21
-27 40 -54z m410 26 c3 -5 -3 -10 -14 -10 -12 0 -21 5 -21 10 0 6 6 10 14 10
8 0 18 -4 21 -10z m-495 -9 c0 -4 -11 -6 -25 -3 -14 2 -25 6 -25 8 0 2 11 4
25 4 14 0 25 -4 25 -9z m327 -23 c-3 -8 -6 -5 -6 6 -1 11 2 17 5 13 3 -3 4
-12 1 -19z m-50 -20 c-3 -8 -6 -5 -6 6 -1 11 2 17 5 13 3 -3 4 -12 1 -19z"/>
<path d="M611 1244 c-12 -15 -21 -36 -21 -48 0 -18 3 -16 16 9 8 16 23 38 31
47 9 10 11 18 5 18 -6 0 -20 -12 -31 -26z"/>
<path d="M706 1188 c-18 -25 -21 -58 -6 -58 6 0 10 9 10 21 0 11 5 29 10 40
14 26 5 24 -14 -3z"/>
<path d="M1265 1200 c-3 -5 -2 -10 4 -10 5 0 23 -12 40 -26 35 -29 43 -18 9
13 -33 29 -46 35 -53 23z"/>
<path d="M730 1171 c-6 -12 -7 -21 -1 -21 10 0 24 30 17 37 -2 3 -9 -5 -16
-16z"/>
<path d="M1286 1147 c10 -15 23 -27 28 -27 12 0 -18 43 -34 48 -8 3 -6 -5 6
-21z"/>
<path d="M1041 1184 c-28 -20 -14 -42 17 -25 26 14 77 14 103 0 31 -16 42 -6
19 19 -26 27 -103 31 -139 6z"/>
<path d="M827 1133 c-18 -17 -2 -24 50 -21 77 4 86 28 11 28 -30 0 -58 -3 -61
-7z"/>
<path d="M1052 1128 c3 -9 24 -13 61 -13 79 0 77 19 -2 23 -48 2 -62 0 -59
-10z"/>
<path d="M353 939 c-16 -16 -5 -39 17 -39 25 0 35 18 20 35 -15 18 -22 19 -37
4z"/>
<path d="M1614 936 c-8 -21 3 -36 27 -36 15 0 20 6 17 22 -4 27 -35 37 -44 14z"/>
<path d="M1455 719 c-9 -28 9 -46 29 -30 12 10 14 9 9 -7 -3 -15 6 -25 40 -45
24 -15 47 -36 50 -47 3 -11 12 -20 19 -20 19 0 42 44 35 64 -8 21 -114 89
-126 81 -6 -3 -11 1 -11 9 0 24 -38 19 -45 -5z"/>
<path d="M453 679 c-43 -27 -52 -58 -24 -80 11 -9 21 -24 21 -32 0 -8 6 -20
14 -26 12 -10 25 -5 68 23 54 37 78 44 78 25 0 -5 -4 -8 -8 -5 -5 3 -28 -15
-52 -39 -43 -44 -43 -45 -25 -65 10 -11 23 -20 29 -19 14 1 74 70 78 89 2 8
11 18 20 22 17 7 15 38 -3 38 -4 0 -21 14 -37 31 -24 26 -33 30 -48 21 -14 -8
-20 -6 -29 11 -14 29 -43 31 -82 6z m37 -64 c-7 -9 -15 -13 -19 -10 -3 3 1 10
9 15 21 14 24 12 10 -5z"/>
<path d="M1416 604 c-31 -32 -35 -64 -7 -64 14 0 18 -5 14 -19 -4 -18 20 -51
37 -51 5 0 30 19 55 42 l45 42 -37 38 c-44 45 -71 48 -107 12z"/>
<path d="M1305 524 c-22 -13 -40 -28 -39 -34 3 -28 5 -31 25 -25 19 6 20 4 15
-22 -4 -17 -1 -35 6 -46 13 -17 16 -17 61 9 51 28 61 60 19 58 -20 -1 -22 3
-17 23 5 23 -9 64 -23 62 -4 0 -25 -12 -47 -25z"/>
<path d="M724 526 c-4 -11 -11 -12 -36 -2 -27 10 -32 9 -54 -17 -42 -49 -41
-107 3 -107 8 0 21 -7 29 -15 29 -29 48 -17 87 56 31 56 36 73 27 84 -16 19
-49 19 -56 1z"/>
<path d="M1157 464 c-31 -17 -33 -50 -3 -48 16 2 16 1 1 -16 -33 -37 3 -84 47
-63 13 6 36 14 52 18 25 5 28 9 22 37 -12 58 -29 83 -61 85 -17 2 -43 -4 -58
-13z"/>
<path d="M976 443 c-4 -4 -23 -6 -42 -4 l-34 3 0 -66 0 -66 29 0 c16 0 32 6
34 13 4 10 6 10 6 0 1 -17 68 -17 74 0 4 10 6 10 6 0 1 -8 14 -13 31 -13 30 0
30 0 30 59 0 71 -16 91 -61 74 -17 -7 -31 -7 -35 -2 -6 11 -28 12 -38 2z"/>
<path d="M769 414 c-16 -19 -2 -30 53 -39 56 -10 83 16 36 34 -54 19 -76 21
-89 5z"/>
</g>
</svg>
